 http://www.imdb.com/title/tt0080339/

Source: Airplane.1980.720p.BluRay.X264-AMIABLE Thanks!

Subs: Danish, Dutch, English, French, Greek, Italian, Norwegian, Polish, Servian and Spanish.

Sample and Screens included.

General
Complete name                    : Airplane-720p MP4 AAC x264 BRRip 1980-CC.mp4
Format                           : MPEG-4
Format profile                   : Base Media
Codec ID                         : isom
File size                        : 2.13 GiB
Duration                         : 1h 27mn
Overall bit rate                 : 3 476 Kbps
Encoded date                     : UTC 2012-07-30 14:32:25

Video
ID                               : 1
Format                           : AVC
Format/Info                      : Advanced Video Codec
Format profile                   : High@L3.1
Format settings, CABAC           : Yes
Format settings, ReFrames        : 5 frames
Codec ID                         : avc1
Codec ID/Info                    : Advanced Video Coding
Duration                         : 1h 27mn
Bit rate mode                    : Variable
Bit rate                         : 3 103 Kbps
Maximum bit rate                 : 25.1 Mbps
Width                            : 1 280 pixels
Height                           : 720 pixels
Display aspect ratio             : 16:9
Frame rate mode                  : Variable
Frame rate                       : 23.976 fps
Minimum frame rate               : 23.256 fps
Maximum frame rate               : 25.000 fps
Resolution                       : 24 bits
Colorimetry                      : 4:2:0
Scan type                        : Progressive
Bits/(Pixel*Frame)               : 0.140
Stream size                      : 1.89 GiB (89%)
Writing library                  : x264 core 112

Audio
ID                               : 2
Format                           : AAC
Format/Info                      : Advanced Audio Codec
Format version                   : Version 4
Format profile                   : LC
Format settings, SBR             : No
Codec ID                         : 40
Duration                         : 1h 27mn
Bit rate mode                    : Variable
Bit rate                         : 384 Kbps
Maximum bit rate                 : 727 Kbps
Channel(s)                       : 6 channels
Channel positions                : Front: L C R, Rear: L R, LFE
Sampling rate                    : 48.0 KHz
Resolution                       : 16 bits
Stream size                      : 240 MiB (11%)
Language                         : English

Enjoy...

Requested by aartje80 atThanks!